<?xml version="1.0" encoding="UTF-8" standalone="no"?>
<!DOCTYPE svg PUBLIC "-//W3C//DTD SVG 1.1//EN"
 "http://www.w3.org/Graphics/SVG/1.1/DTD/svg11.dtd">
<!-- Generated by graphviz version 2.48.0 (20210717.1556)
 -->
<!-- Pages: 1 -->
<svg width="1680pt" height="521pt"
 viewBox="0.00 0.00 1680.00 521.00" xmlns="http://www.w3.org/2000/svg" xmlns:xlink="http://www.w3.org/1999/xlink">
<g id="graph0" class="graph" transform="scale(1 1) rotate(0) translate(4 517)">
<polygon fill="white" stroke="transparent" points="-4,4 -4,-517 1676,-517 1676,4 -4,4"/>
<g id="clust1" class="cluster">
<title>cluster_TaskSubSystem</title>
<polygon fill="none" stroke="black" points="927,-377 927,-505 1629,-505 1629,-377 927,-377"/>
<text text-anchor="middle" x="1278" y="-489.8" font-family="Times,serif" font-size="14.00">TaskSubSystem</text>
</g>
<g id="clust2" class="cluster">
<title>cluster_ImageClassificationTask@Task</title>
<polygon fill="none" stroke="blue" points="935,-385 935,-474 1621,-474 1621,-385 935,-385"/>
<text text-anchor="middle" x="1278" y="-458.8" font-family="Times,serif" font-size="14.00">ImageClassificationTask@Task</text>
</g>
<g id="clust3" class="cluster">
<title>cluster_ProblemSubSystem</title>
<polygon fill="none" stroke="black" points="144,-241 144,-369 1664,-369 1664,-241 144,-241"/>
<text text-anchor="middle" x="904" y="-353.8" font-family="Times,serif" font-size="14.00">ProblemSubSystem</text>
</g>
<g id="clust4" class="cluster">
<title>cluster_ImageClassificationProblem@Problem</title>
<polygon fill="none" stroke="blue" points="152,-249 152,-338 1656,-338 1656,-249 152,-249"/>
<text text-anchor="middle" x="904" y="-322.8" font-family="Times,serif" font-size="14.00">ImageClassificationProblem@Problem</text>
</g>
<g id="clust5" class="cluster">
<title>cluster_MachineSubSystem</title>
<polygon fill="none" stroke="black" points="8,-8 8,-233 1155,-233 1155,-8 8,-8"/>
<text text-anchor="middle" x="581.5" y="-217.8" font-family="Times,serif" font-size="14.00">MachineSubSystem</text>
</g>
<g id="clust6" class="cluster">
<title>cluster_ImageClassificationMachine@Machine</title>
<polygon fill="none" stroke="blue" points="145,-113 145,-202 1147,-202 1147,-113 145,-113"/>
<text text-anchor="middle" x="646" y="-186.8" font-family="Times,serif" font-size="14.00">ImageClassificationMachine@Machine</text>
</g>
<g id="clust7" class="cluster">
<title>cluster_MultiClassificationMetricEvaluator@MachineEvaluator</title>
<polygon fill="none" stroke="blue" points="16,-16 16,-105 615,-105 615,-16 16,-16"/>
<text text-anchor="middle" x="315.5" y="-89.8" font-family="Times,serif" font-size="14.00">MultiClassificationMetricEvaluator@MachineEvaluator</text>
</g>
<g id="clust8" class="cluster">
<title>cluster_CrossEntropyLoss@MachineLoss</title>
<polygon fill="none" stroke="blue" points="623,-16 623,-105 1147,-105 1147,-16 623,-16"/>
<text text-anchor="middle" x="885" y="-89.8" font-family="Times,serif" font-size="14.00">CrossEntropyLoss@MachineLoss</text>
</g>
<!-- Task.Backward.Requests.Inference -->
<g id="node1" class="node">
<title>Task.Backward.Requests.Inference</title>
<polygon fill="none" stroke="black" points="1613,-443 1387,-443 1387,-393 1613,-393 1613,-443"/>
<polygon fill="none" stroke="black" points="1395,-418 1395,-439 1605,-439 1605,-418 1395,-418"/>
<text text-anchor="start" x="1398" y="-424.8" font-family="Times,serif" font-size="14.00"> Task.Backward.Requests.Inference </text>
<polygon fill="none" stroke="black" points="1395,-397 1395,-418 1605,-418 1605,-397 1395,-397"/>
<text text-anchor="start" x="1453" y="-403.8" font-family="Times,serif" font-size="14.00"> inference_label </text>
</g>
<!-- Task.Forward.Provision.Source -->
<g id="node2" class="node">
<title>Task.Forward.Provision.Source</title>
<polygon fill="none" stroke="black" points="1369,-443 1163,-443 1163,-393 1369,-393 1369,-443"/>
<polygon fill="none" stroke="black" points="1171,-418 1171,-439 1361,-439 1361,-418 1171,-418"/>
<text text-anchor="start" x="1174" y="-424.8" font-family="Times,serif" font-size="14.00"> Task.Forward.Provision.Source </text>
<polygon fill="none" stroke="black" points="1171,-397 1171,-418 1361,-418 1361,-397 1171,-397"/>
<text text-anchor="start" x="1245" y="-403.8" font-family="Times,serif" font-size="14.00"> image </text>
</g>
<!-- Problem.Forward.Requests.Source -->
<g id="node4" class="node">
<title>Problem.Forward.Requests.Source</title>
<polygon fill="none" stroke="black" points="1378,-307 1154,-307 1154,-257 1378,-257 1378,-307"/>
<polygon fill="none" stroke="black" points="1162,-282 1162,-303 1370,-303 1370,-282 1162,-282"/>
<text text-anchor="start" x="1165" y="-288.8" font-family="Times,serif" font-size="14.00"> Problem.Forward.Requests.Source </text>
<polygon fill="none" stroke="black" points="1162,-261 1162,-282 1370,-282 1370,-261 1162,-261"/>
<text text-anchor="start" x="1245" y="-267.8" font-family="Times,serif" font-size="14.00"> image </text>
</g>
<!-- Task.Forward.Provision.Source&#45;&gt;Problem.Forward.Requests.Source -->
<g id="edge6" class="edge">
<title>Task.Forward.Provision.Source&#45;&gt;Problem.Forward.Requests.Source</title>
<path fill="none" stroke="black" d="M1266,-392.73C1266,-371.67 1266,-340.95 1266,-317.36"/>
<polygon fill="black" stroke="black" points="1269.5,-317.09 1266,-307.09 1262.5,-317.09 1269.5,-317.09"/>
</g>
<!-- Task.Forward.Provision.Target -->
<g id="node3" class="node">
<title>Task.Forward.Provision.Target</title>
<polygon fill="none" stroke="black" points="1145,-443 943,-443 943,-393 1145,-393 1145,-443"/>
<polygon fill="none" stroke="black" points="951,-418 951,-439 1137,-439 1137,-418 951,-418"/>
<text text-anchor="start" x="954" y="-424.8" font-family="Times,serif" font-size="14.00"> Task.Forward.Provision.Target </text>
<polygon fill="none" stroke="black" points="951,-397 951,-418 1137,-418 1137,-397 951,-397"/>
<text text-anchor="start" x="1026.5" y="-403.8" font-family="Times,serif" font-size="14.00"> label </text>
</g>
<!-- Problem.Forward.Requests.Target -->
<g id="node5" class="node">
<title>Problem.Forward.Requests.Target</title>
<polygon fill="none" stroke="black" points="381.5,-307 160.5,-307 160.5,-257 381.5,-257 381.5,-307"/>
<polygon fill="none" stroke="black" points="169,-282 169,-303 374,-303 374,-282 169,-282"/>
<text text-anchor="start" x="172" y="-288.8" font-family="Times,serif" font-size="14.00"> Problem.Forward.Requests.Target </text>
<polygon fill="none" stroke="black" points="169,-261 169,-282 374,-282 374,-261 169,-261"/>
<text text-anchor="start" x="254" y="-267.8" font-family="Times,serif" font-size="14.00"> label </text>
</g>
<!-- Task.Forward.Provision.Target&#45;&gt;Problem.Forward.Requests.Target -->
<g id="edge7" class="edge">
<title>Task.Forward.Provision.Target&#45;&gt;Problem.Forward.Requests.Target</title>
<path fill="none" stroke="black" d="M942.71,-416.22C785.25,-413.89 489.59,-404.72 391,-369 358.02,-357.05 326,-333.3 303.35,-313.78"/>
<polygon fill="black" stroke="black" points="305.56,-311.06 295.74,-307.08 300.93,-316.31 305.56,-311.06"/>
</g>
<!-- Problem.Backward.Requests.Inference -->
<g id="node6" class="node">
<title>Problem.Backward.Requests.Inference</title>
<polygon fill="none" stroke="black" points="1136,-307 888,-307 888,-257 1136,-257 1136,-307"/>
<polygon fill="none" stroke="black" points="896,-282 896,-303 1128,-303 1128,-282 896,-282"/>
<text text-anchor="start" x="899" y="-288.8" font-family="Times,serif" font-size="14.00"> Problem.Backward.Requests.Inference </text>
<polygon fill="none" stroke="black" points="896,-261 896,-282 1128,-282 1128,-261 896,-261"/>
<text text-anchor="start" x="965" y="-267.8" font-family="Times,serif" font-size="14.00"> inference_label </text>
</g>
<!-- Problem.Forward.Provision.Source -->
<g id="node7" class="node">
<title>Problem.Forward.Provision.Source</title>
<polygon fill="none" stroke="black" points="869.5,-307 642.5,-307 642.5,-257 869.5,-257 869.5,-307"/>
<polygon fill="none" stroke="black" points="651,-282 651,-303 862,-303 862,-282 651,-282"/>
<text text-anchor="start" x="654" y="-288.8" font-family="Times,serif" font-size="14.00"> Problem.Forward.Provision.Source </text>
<polygon fill="none" stroke="black" points="651,-261 651,-282 862,-282 862,-261 651,-261"/>
<text text-anchor="start" x="735.5" y="-267.8" font-family="Times,serif" font-size="14.00"> image </text>
</g>
<!-- Machine.Forward.Requests.Source -->
<g id="node10" class="node">
<title>Machine.Forward.Requests.Source</title>
<polygon fill="none" stroke="black" points="869,-171 643,-171 643,-121 869,-121 869,-171"/>
<polygon fill="none" stroke="black" points="651,-146 651,-167 861,-167 861,-146 651,-146"/>
<text text-anchor="start" x="654" y="-152.8" font-family="Times,serif" font-size="14.00"> Machine.Forward.Requests.Source </text>
<polygon fill="none" stroke="black" points="651,-125 651,-146 861,-146 861,-125 651,-125"/>
<text text-anchor="start" x="735" y="-131.8" font-family="Times,serif" font-size="14.00"> image </text>
</g>
<!-- Problem.Forward.Provision.Source&#45;&gt;Machine.Forward.Requests.Source -->
<g id="edge9" class="edge">
<title>Problem.Forward.Provision.Source&#45;&gt;Machine.Forward.Requests.Source</title>
<path fill="none" stroke="black" d="M756,-256.73C756,-235.67 756,-204.95 756,-181.36"/>
<polygon fill="black" stroke="black" points="759.5,-181.09 756,-171.09 752.5,-181.09 759.5,-181.09"/>
</g>
<!-- Problem.Forward.Provision.Target -->
<g id="node8" class="node">
<title>Problem.Forward.Provision.Target</title>
<polygon fill="none" stroke="black" points="624,-307 400,-307 400,-257 624,-257 624,-307"/>
<polygon fill="none" stroke="black" points="408,-282 408,-303 616,-303 616,-282 408,-282"/>
<text text-anchor="start" x="411" y="-288.8" font-family="Times,serif" font-size="14.00"> Problem.Forward.Provision.Target </text>
<polygon fill="none" stroke="black" points="408,-261 408,-282 616,-282 616,-261 408,-261"/>
<text text-anchor="start" x="494.5" y="-267.8" font-family="Times,serif" font-size="14.00"> label </text>
</g>
<!-- Machine.Forward.Requests.Target -->
<g id="node11" class="node">
<title>Machine.Forward.Requests.Target</title>
<polygon fill="none" stroke="black" points="375,-171 153,-171 153,-121 375,-121 375,-171"/>
<polygon fill="none" stroke="black" points="161,-146 161,-167 367,-167 367,-146 161,-146"/>
<text text-anchor="start" x="164" y="-152.8" font-family="Times,serif" font-size="14.00"> Machine.Forward.Requests.Target </text>
<polygon fill="none" stroke="black" points="161,-125 161,-146 367,-146 367,-125 161,-125"/>
<text text-anchor="start" x="246.5" y="-131.8" font-family="Times,serif" font-size="14.00"> label </text>
</g>
<!-- Problem.Forward.Provision.Target&#45;&gt;Machine.Forward.Requests.Target -->
<g id="edge10" class="edge">
<title>Problem.Forward.Provision.Target&#45;&gt;Machine.Forward.Requests.Target</title>
<path fill="none" stroke="black" d="M437.77,-256.94C419.77,-250.08 400.85,-242 384,-233 354.6,-217.31 324.1,-195.37 301.21,-177.58"/>
<polygon fill="black" stroke="black" points="303.17,-174.66 293.14,-171.23 298.84,-180.16 303.17,-174.66"/>
</g>
<!-- Problem.Backward.Provision.Inference -->
<g id="node9" class="node">
<title>Problem.Backward.Provision.Inference</title>
<polygon fill="none" stroke="black" points="1647.5,-307 1396.5,-307 1396.5,-257 1647.5,-257 1647.5,-307"/>
<polygon fill="none" stroke="black" points="1405,-282 1405,-303 1640,-303 1640,-282 1405,-282"/>
<text text-anchor="start" x="1408" y="-288.8" font-family="Times,serif" font-size="14.00"> Problem.Backward.Provision.Inference </text>
<polygon fill="none" stroke="black" points="1405,-261 1405,-282 1640,-282 1640,-261 1405,-261"/>
<text text-anchor="start" x="1475.5" y="-267.8" font-family="Times,serif" font-size="14.00"> inference_label </text>
</g>
<!-- Problem.Backward.Provision.Inference&#45;&gt;Task.Backward.Requests.Inference -->
<g id="edge8" class="edge">
<title>Problem.Backward.Provision.Inference&#45;&gt;Task.Backward.Requests.Inference</title>
<path fill="none" stroke="black" d="M1518.05,-307.09C1514.58,-328.18 1509.51,-359.09 1505.62,-382.76"/>
<polygon fill="black" stroke="black" points="1502.15,-382.3 1503.98,-392.73 1509.06,-383.43 1502.15,-382.3"/>
</g>
<!-- MachineEvaluator.Forward.Requests.Truth -->
<g id="node15" class="node">
<title>MachineEvaluator.Forward.Requests.Truth</title>
<polygon fill="none" stroke="black" points="295.5,-74 24.5,-74 24.5,-24 295.5,-24 295.5,-74"/>
<polygon fill="none" stroke="black" points="33,-49 33,-70 288,-70 288,-49 33,-49"/>
<text text-anchor="start" x="36" y="-55.8" font-family="Times,serif" font-size="14.00"> MachineEvaluator.Forward.Requests.Truth </text>
<polygon fill="none" stroke="black" points="33,-28 33,-49 288,-49 288,-28 33,-28"/>
<text text-anchor="start" x="143" y="-34.8" font-family="Times,serif" font-size="14.00"> label </text>
</g>
<!-- Machine.Forward.Requests.Target&#45;&gt;MachineEvaluator.Forward.Requests.Truth -->
<g id="edge1" class="edge">
<title>Machine.Forward.Requests.Target&#45;&gt;MachineEvaluator.Forward.Requests.Truth</title>
<path fill="none" stroke="black" d="M237.49,-120.78C224.29,-108.72 208.17,-94 194.06,-81.12"/>
<polygon fill="black" stroke="black" points="196.21,-78.33 186.46,-74.17 191.49,-83.5 196.21,-78.33"/>
</g>
<!-- MachineLoss.Forward.Requests.Truth -->
<g id="node17" class="node">
<title>MachineLoss.Forward.Requests.Truth</title>
<polygon fill="none" stroke="black" points="875,-74 631,-74 631,-24 875,-24 875,-74"/>
<polygon fill="none" stroke="black" points="639,-49 639,-70 867,-70 867,-49 639,-49"/>
<text text-anchor="start" x="642" y="-55.8" font-family="Times,serif" font-size="14.00"> MachineLoss.Forward.Requests.Truth </text>
<polygon fill="none" stroke="black" points="639,-28 639,-49 867,-49 867,-28 639,-28"/>
<text text-anchor="start" x="735.5" y="-34.8" font-family="Times,serif" font-size="14.00"> label </text>
</g>
<!-- Machine.Forward.Requests.Target&#45;&gt;MachineLoss.Forward.Requests.Truth -->
<g id="edge4" class="edge">
<title>Machine.Forward.Requests.Target&#45;&gt;MachineLoss.Forward.Requests.Truth</title>
<path fill="none" stroke="black" d="M344.16,-120.95C357.37,-117.76 370.99,-114.93 384,-113 435.69,-105.33 567.91,-115.98 619,-105 645.36,-99.33 673.15,-88.76 696.54,-78.39"/>
<polygon fill="black" stroke="black" points="698.28,-81.45 705.95,-74.13 695.39,-75.07 698.28,-81.45"/>
</g>
<!-- Machine.Backward.Provision.Learn -->
<g id="node12" class="node">
<title>Machine.Backward.Provision.Learn</title>
<polygon fill="none" stroke="black" points="625,-171 393,-171 393,-121 625,-121 625,-171"/>
<polygon fill="none" stroke="black" points="401,-146 401,-167 617,-167 617,-146 401,-146"/>
<text text-anchor="start" x="404" y="-152.8" font-family="Times,serif" font-size="14.00"> Machine.Backward.Provision.Learn </text>
<polygon fill="none" stroke="black" points="401,-125 401,-146 617,-146 617,-125 401,-125"/>
<text text-anchor="start" x="492.5" y="-131.8" font-family="Times,serif" font-size="14.00"> logit </text>
</g>
<!-- MachineLoss.Forward.Requests.Learn -->
<g id="node16" class="node">
<title>MachineLoss.Forward.Requests.Learn</title>
<polygon fill="none" stroke="black" points="1139,-74 893,-74 893,-24 1139,-24 1139,-74"/>
<polygon fill="none" stroke="black" points="901,-49 901,-70 1131,-70 1131,-49 901,-49"/>
<text text-anchor="start" x="904" y="-55.8" font-family="Times,serif" font-size="14.00"> MachineLoss.Forward.Requests.Learn </text>
<polygon fill="none" stroke="black" points="901,-28 901,-49 1131,-49 1131,-28 901,-28"/>
<text text-anchor="start" x="999.5" y="-34.8" font-family="Times,serif" font-size="14.00"> logit </text>
</g>
<!-- Machine.Backward.Provision.Learn&#45;&gt;MachineLoss.Forward.Requests.Learn -->
<g id="edge5" class="edge">
<title>Machine.Backward.Provision.Learn&#45;&gt;MachineLoss.Forward.Requests.Learn</title>
<path fill="none" stroke="black" d="M592.54,-120.93C606.29,-117.75 620.47,-114.92 634,-113 689.03,-105.17 829.68,-116.77 884,-105 910.12,-99.34 937.62,-88.71 960.72,-78.3"/>
<polygon fill="black" stroke="black" points="962.38,-81.38 970,-74.02 959.45,-75.03 962.38,-81.38"/>
</g>
<!-- Machine.Backward.Provision.Inference -->
<g id="node13" class="node">
<title>Machine.Backward.Provision.Inference</title>
<polygon fill="none" stroke="black" points="1139,-171 887,-171 887,-121 1139,-121 1139,-171"/>
<polygon fill="none" stroke="black" points="895,-146 895,-167 1131,-167 1131,-146 895,-146"/>
<text text-anchor="start" x="898" y="-152.8" font-family="Times,serif" font-size="14.00"> Machine.Backward.Provision.Inference </text>
<polygon fill="none" stroke="black" points="895,-125 895,-146 1131,-146 1131,-125 895,-125"/>
<text text-anchor="start" x="966" y="-131.8" font-family="Times,serif" font-size="14.00"> inference_label </text>
</g>
<!-- Machine.Backward.Provision.Inference&#45;&gt;Problem.Backward.Requests.Inference -->
<g id="edge11" class="edge">
<title>Machine.Backward.Provision.Inference&#45;&gt;Problem.Backward.Requests.Inference</title>
<path fill="none" stroke="black" d="M1012.82,-171.09C1012.66,-192.09 1012.43,-222.81 1012.26,-246.44"/>
<polygon fill="black" stroke="black" points="1008.76,-246.71 1012.18,-256.73 1015.76,-246.76 1008.76,-246.71"/>
</g>
<!-- contract_1 -->
<g id="node18" class="node">
<title>contract_1</title>
<polygon fill="none" stroke="black" points="1320.5,-67 1163.5,-67 1163.5,-31 1320.5,-31 1320.5,-67"/>
<polygon fill="none" stroke="black" points="1172,-38 1172,-59 1272,-59 1272,-38 1172,-38"/>
<text text-anchor="start" x="1175" y="-44.8" font-family="Times,serif" font-size="14.00"> inference_label </text>
<polygon fill="none" stroke="black" points="1272,-38 1272,-59 1313,-59 1313,-38 1272,-38"/>
<text text-anchor="start" x="1275" y="-44.8" font-family="Times,serif" font-size="14.00"> label </text>
</g>
<!-- Machine.Backward.Provision.Inference&#45;&gt;contract_1 -->
<g id="edge2" class="edge">
<title>Machine.Backward.Provision.Inference&#45;&gt;contract_1</title>
<path fill="none" stroke="black" d="M1108.44,-120.89C1122.92,-116.21 1137.52,-110.91 1151,-105 1171.3,-96.11 1192.58,-83.46 1209.45,-72.53"/>
<polygon fill="black" stroke="black" points="1211.42,-75.43 1217.84,-67 1207.56,-69.58 1211.42,-75.43"/>
</g>
<!-- MachineEvaluator.Forward.Requests.Inference -->
<g id="node14" class="node">
<title>MachineEvaluator.Forward.Requests.Inference</title>
<polygon fill="none" stroke="black" points="606.5,-74 313.5,-74 313.5,-24 606.5,-24 606.5,-74"/>
<polygon fill="none" stroke="black" points="322,-49 322,-70 599,-70 599,-49 322,-49"/>
<text text-anchor="start" x="325" y="-55.8" font-family="Times,serif" font-size="14.00"> MachineEvaluator.Forward.Requests.Inference </text>
<polygon fill="none" stroke="black" points="322,-28 322,-49 599,-49 599,-28 322,-28"/>
<text text-anchor="start" x="443" y="-34.8" font-family="Times,serif" font-size="14.00"> label </text>
</g>
<!-- contract_1&#45;&gt;MachineEvaluator.Forward.Requests.Inference -->
<g id="edge3" class="edge">
<title>contract_1&#45;&gt;MachineEvaluator.Forward.Requests.Inference</title>
<path fill="none" stroke="black" d="M1221.18,-67.2C1202.1,-82.39 1172.3,-102.57 1142,-109 1128.03,-111.96 642.07,-111.44 628,-109 592.74,-102.89 555.08,-90.07 524.38,-77.85"/>
<polygon fill="black" stroke="black" points="525.66,-74.59 515.08,-74.08 523.04,-81.08 525.66,-74.59"/>
</g>
</g>
</svg>
